<?xml version="1.0" encoding="UTF-8"?>
<svg id="Layer_1" data-name="Layer 1" xmlns="http://www.w3.org/2000/svg" width="50" height="50" viewBox="0 0 50 50">
  <defs>
    <style>
      .cls-1 {
        fill: #0085ba;
      }

      .cls-2 {
        fill: #e5f3f8;
      }
    </style>
  </defs>
  <rect class="cls-2" x="1" y="1" width="48" height="48" rx="2" ry="2"/>
  <path class="cls-1" d="m18.7,27.23c-.8-1-1.42-2.12-1.85-3.37-.43-1.25-.65-2.57-.65-3.95,0-.47.02-.95.05-1.44s.11-1,.22-1.51l-1.85,1.82-.87-.87,3.32-3.3,3.32,3.3-.87.87-1.82-1.8c-.1.48-.17.98-.2,1.5-.03.52-.05.99-.05,1.42,0,1.2.19,2.35.57,3.45.38,1.1.91,2.09,1.57,2.97l-.9.9Zm8.9,8.02l-6.8-2.62.7-1.9c.12-.3.28-.56.5-.79.22-.22.48-.37.8-.44l1.97-.4-3.32-7.42c-.28-.63-.3-1.27-.05-1.91.25-.64.69-1.1,1.32-1.39s1.27-.3,1.91-.06,1.1.68,1.39,1.31l1.75,3.92.6-.25c.07-.03.14-.05.22-.05h.25l4.1.15c.43.02.82.17,1.15.45.33.28.56.64.67,1.07l1.4,5.35c.13.48.09.94-.14,1.37-.22.43-.56.75-1.01.95l-5.85,2.6c-.25.12-.51.18-.79.19-.27,0-.54-.04-.79-.14Zm.77-1.35l6.42-2.85-1.55-6.12-5.1-.22-1.25.57-2.25-5.02c-.13-.28-.32-.47-.55-.57-.23-.1-.49-.08-.77.05-.28.13-.47.32-.56.55-.09.23-.07.49.06.77l4.05,9.12-3.85.8-.27.77,5.62,2.15Z"/>
</svg>