<?xml version="1.0" encoding="UTF-8"?>
<svg id="Layer_1" data-name="Layer 1" xmlns="http://www.w3.org/2000/svg" width="60" height="60" viewBox="0 0 60 60">
  <defs>
    <style>
      .cls-1, .cls-2, .cls-3, .cls-4 {
        fill: #0085ba;
      }

      .cls-5 {
        fill: #fff;
      }

      .cls-2 {
        opacity: .2;
      }

      .cls-3 {
        opacity: .6;
      }

      .cls-4 {
        opacity: .5;
      }
    </style>
  </defs>
  <rect class="cls-5" width="60" height="60"/>
  <rect class="cls-1" x="15" y="18.19" width="12" height="1" rx=".5" ry=".5"/>
  <rect class="cls-1" x="29.96" y="18.19" width="8" height="1" rx=".5" ry=".5"/>
  <rect class="cls-1" x="40.93" y="18.19" width="4" height="1" rx=".5" ry=".5"/>
  <rect class="cls-1" x="15" y="22.39" width="12" height="1" rx=".5" ry=".5"/>
  <rect class="cls-1" x="29.96" y="22.39" width="8" height="1" rx=".5" ry=".5"/>
  <rect class="cls-1" x="40.93" y="22.39" width="4" height="1" rx=".5" ry=".5"/>
  <rect class="cls-1" x="15" y="26.59" width="12" height="1" rx=".5" ry=".5"/>
  <rect class="cls-1" x="29.96" y="26.59" width="8" height="1" rx=".5" ry=".5"/>
  <rect class="cls-1" x="40.93" y="26.59" width="4" height="1" rx=".5" ry=".5"/>
  <rect class="cls-2" x="15.02" y="30.79" width="7.55" height="1.31" rx=".13" ry=".13"/>
  <rect class="cls-1" x="22.94" y="30.79" width="4.62" height="1.31" rx=".13" ry=".13"/>
  <rect class="cls-4" x="39" y="30.79" width="6" height="1.31" rx=".15" ry=".15"/>
  <rect class="cls-3" x="15" y="33.87" width="30" height="12.64" rx="1" ry="1"/>
  <path class="cls-1" d="M46,11c1.65,0,3,1.35,3,3V46c0,1.65-1.35,3-3,3H14c-1.65,0-3-1.35-3-3V14c0-1.65,1.35-3,3-3H46m0-1H14c-2.21,0-4,1.79-4,4V46c0,2.21,1.79,4,4,4H46c2.21,0,4-1.79,4-4V14c0-2.21-1.79-4-4-4h0Z"/>
</svg>