<?xml version="1.0" encoding="UTF-8"?>
<svg id="Layer_1" data-name="Layer 1" xmlns="http://www.w3.org/2000/svg" width="60" height="60" viewBox="0 0 60 60">
  <defs>
    <style>
      .cls-1 {
        fill: #0085ba;
      }

      .cls-2 {
        fill: #fff;
      }
    </style>
  </defs>
  <rect class="cls-2" width="60" height="60"/>
  <g id="Background">
    <path class="cls-1" d="M47,11.0063c1.1028,0,2,.8972,2,2V31.0063c0,1.1028-.8972,2-2,2H13c-1.1028,0-2-.8972-2-2V13.0063c0-1.1028,.8972-2,2-2H47m0-1H13c-1.6569,0-3,1.3432-3,3V31.0063c0,1.6569,1.3431,3,3,3H47c1.6569,0,3-1.3431,3-3V13.0063c0-1.6568-1.3431-3-3-3h0Z"/>
  </g>
  <path id="Icon" class="cls-1" d="M35.4493,23.8985l-3.0241-3.1722c-.0648-.0681-.1831-.0681-.2479,0l-2.6454,2.7751c-.066,.0691-.064,.1791,.0045,.2458,.0685,.0667,.1776,.0648,.2433-.0045l2.5216-2.645,3.0814,3.2322c.0192,.0202,.0421,.034,.0665,.0427v1.2859h-4.7455l-3.8505-4.0052c-.0649-.0674-.1819-.0674-.2469,0l-2.0557,2.1383v-5.4374h10.8986v5.5443Zm-10.8986,1.76v-1.3707l.0087-.006,2.1714-2.2579,3.4956,3.6346h-5.6757Zm11.0725-7.6522h-11.2481c-.0951,0-.1722,.0771-.1722,.1722v7.6539c0,.0957,.0783,.1739,.1739,.1739h11.2481c.0951,0,.1722-.0771,.1722-.1722v-7.6539c0-.0957-.0783-.1739-.1739-.1739Zm-6.4975,3.7083c.5696,0,1.033-.4682,1.033-1.0435s-.4633-1.0435-1.033-1.0435-1.033,.4682-1.033,1.0435,.4633,1.0435,1.033,1.0435Zm0-1.7391c.3798,0,.6886,.312,.6886,.6957s-.3089,.6957-.6886,.6957-.6886-.312-.6886-.6957,.3089-.6957,.6886-.6957Z"/>
  <rect class="cls-1" x="14" y="39.0791" width="32" height="1" rx=".5" ry=".5"/>
  <rect class="cls-1" x="18" y="44.6826" width="24" height="1" rx=".5" ry=".5"/>
</svg>