<?xml version="1.0" encoding="UTF-8"?>
<svg id="Layer_1" data-name="Layer 1" xmlns="http://www.w3.org/2000/svg" width="60" height="60" viewBox="0 0 60 60">
  <defs>
    <style>
      .cls-1 {
        fill: #0085ba;
      }

      .cls-2 {
        fill: #fff;
      }
    </style>
  </defs>
  <rect class="cls-2" width="60" height="60"/>
  <path class="cls-1" d="M30.0346,12.6634c4.8384,0,9.6768-.0035,14.5151,.0031,.9029,.0012,1.7873,.1485,2.5891,.5882,1.6122,.8841,2.5125,2.2451,2.6653,4.0859,.0142,.1712,.0152,.3439,.0152,.5159,.0007,8.0892-.0065,16.1784,.0064,24.2675,.0027,1.7208-.6415,3.1095-1.9735,4.1765-.9396,.7526-2.0593,1.0276-3.2327,1.0289-9.7284,.0109-19.4568,.0097-29.1852,.0041-3.0296-.0017-5.2373-2.1574-5.2455-5.1914-.0219-8.0891-.0163-16.1784-.0023-24.2675,.0044-2.5181,1.4744-4.418,3.8539-5.0287,.4933-.1266,1.0195-.1736,1.5307-.175,4.8211-.0127,9.6423-.0076,14.4635-.0076Zm18.5558,4.6118c-.1409-1.0194-.517-1.9105-1.3683-2.5627-.7579-.5806-1.6135-.8366-2.5491-.8375-5.5444-.0054-11.0889-.0027-16.6334-.0027h-.4451v-.0007h-2v.0007c-3.3521,0-6.7042-.0007-10.0564,.0002-2.5836,.0007-4.1544,1.5666-4.1549,4.1488-.0017,7.9866-.0018,15.9731,0,23.9597,.0006,2.5837,1.5687,4.1449,4.1566,4.1456,3.3516,.0009,6.7031,.0002,10.0547,.0002v.007h2v-.0345c.0689,.0115,.1321,.0248,.1837,.0249,5.6994,.0012,11.399,.0296,17.0981-.0173,1.5963-.0132,2.8647-.7671,3.4445-2.3376,.2084-.5645,.2845-1.207,.2859-1.8142,.0181-7.9689,.0123-15.9377,.011-23.9066,0-.2579,.0079-.519-.0273-.7733Z"/>
  <path class="cls-1" d="M44.1135,17.6271c-1.9072-.012-3.8145-.0096-5.7217-.0002h-.0002c-.0509-.0001-.1019,.0001-.1528,0-.018,.0001-.0359-.0001-.054,0h0c-5.456-.0099-10.9122-.0116-16.3682,.0002l-.0013-.0002c-1.9762-.0104-3.9525-.0123-5.9287,.0002-.5053,.0032-.7901,.3456-.6724,.7484,.1132,.3874,.4271,.4538,.7733,.454,.9452,.0004,1.8903,.0001,2.8355-.0003,.9481-.0004,1.8963,.0064,2.8442-.0049,.0754,.001,.1459,.0052,.2227,.0052,2.6763,.0004,5.3526,.0001,8.0289-.0003,2.7734-.0004,5.5471,.0079,8.3199-.0051,.9792,.0129,1.9589,.0046,2.9383,.0051,.9452,.0004,1.8903,.0007,2.8355,.0003,.3463-.0002,.6601-.0666,.7733-.454,.1177-.4028-.1671-.7452-.6724-.7484Z"/>
  <path class="cls-1" d="M44.1595,22.3372c-1.92-.0113-3.84-.0106-5.7599-.0008h-.0012c-.054-.0001-.108,.0001-.1619,0-.019,.0001-.0381-.0001-.0572,0h0c-5.4509-.0103-10.902-.0101-16.3528,.0008l-.0057-.0008c-1.9933-.0109-3.9868-.0109-5.9802,.0008-.3621,.0021-.6422,.1902-.6466,.5906-.0045,.4006,.2707,.5656,.6338,.6063,.1189,.0133,.2404,.0045,.3606,.0045,.8764,.0002,1.7529,.0001,2.6293-.0004,.87-.0004,1.7401,.0027,2.61-.0042h.001c.3366,.0134,.6805,.0045,1.0211,.0046,2.4816,.0002,4.9633,.0001,7.445-.0004,2.7806-.0004,5.5616,.0074,8.3418-.0048,.9819,.0122,1.9641,.0043,2.946,.0048,.8764,.0005,1.7529,.0005,2.6293,.0004,.1202,0,.2417,.0088,.3606-.0045,.3631-.0406,.6382-.2056,.6338-.6063-.0045-.4005-.2845-.5885-.6466-.5906Z"/>
  <path class="cls-1" d="M44.1644,27.0478c-1.9255-.012-3.8513-.0109-5.7769-.0018h-.0027c-.0494-.0001-.0989,0-.1484,0-.0175,0-.0349,0-.0524,0h-.0002c-5.4515-.0095-10.9033-.0097-16.3547,.0018l-.0134-.0018c-1.9934-.0101-3.9869-.0106-5.9803,.0018-.3623,.0023-.6407,.1945-.6419,.595-.0012,.4005,.276,.5629,.6387,.6018,.119,.0128,.2404,.0041,.3607,.0042,.8765,.0002,1.7529,0,2.6293-.0004,.8686-.0004,1.7372,.0029,2.6056-.0045l.0144,.0008c.3369,.0128,.6806,.0041,1.0212,.0042,2.4817,.0002,4.9634,0,7.4451-.0004,2.7761-.0005,5.5525,.0078,8.328-.0051,.9802,.0129,1.9607,.0046,2.9411,.0051,.8764,.0005,1.7528,.0006,2.6293,.0004,.1203,0,.2416,.0087,.3607-.0042,.3627-.0389,.6399-.2013,.6387-.6018-.0012-.4005-.2796-.5927-.6419-.595Z"/>
  <path class="cls-1" d="M44.1135,42.3729c-1.9072,.012-3.8145,.0096-5.7217,.0002h-.0002c-.0509,.0001-.1019-.0001-.1528,0-.018-.0001-.0359,.0001-.054,0h0c-5.456,.0099-10.9122,.0116-16.3682-.0002l-.0013,.0002c-1.9762,.0104-3.9525,.0123-5.9287-.0002-.5053-.0032-.7901-.3456-.6724-.7484,.1132-.3874,.4271-.4538,.7733-.454,.9452-.0004,1.8903-.0001,2.8355,.0003,.9481,.0004,1.8963-.0064,2.8442,.0049,.0754-.001,.1459-.0052,.2227-.0052,2.6763-.0004,5.3526-.0001,8.0289,.0003,2.7734,.0004,5.5471-.0079,8.3199,.0051,.9792-.0129,1.9589-.0046,2.9383-.0051,.9452-.0004,1.8903-.0007,2.8355-.0003,.3463,.0002,.6601,.0666,.7733,.454,.1177,.4028-.1671,.7452-.6724,.7484Z"/>
  <path class="cls-1" d="M44.1595,37.6628c-1.92,.0113-3.84,.0106-5.7599,.0008h-.0012c-.054,.0001-.108-.0001-.1619,0-.019-.0001-.0381,.0001-.0572,0h0c-5.4509,.0103-10.902,.0101-16.3528-.0008l-.0057,.0008c-1.9933,.0109-3.9868,.0109-5.9802-.0008-.3621-.0021-.6422-.1902-.6466-.5906-.0045-.4006,.2707-.5656,.6338-.6063,.1189-.0133,.2404-.0045,.3606-.0045,.8764-.0002,1.7529-.0001,2.6293,.0004,.87,.0004,1.7401-.0027,2.61,.0042h.001c.3366-.0134,.6805-.0045,1.0211-.0046,2.4816-.0002,4.9633-.0001,7.445,.0004,2.7806,.0004,5.5616-.0074,8.3418,.0048,.9819-.0122,1.9641-.0043,2.946-.0048,.8764-.0005,1.7529-.0005,2.6293-.0004,.1202,0,.2417-.0088,.3606,.0045,.3631,.0406,.6382,.2056,.6338,.6063-.0045,.4005-.2845,.5885-.6466,.5906Z"/>
  <path class="cls-1" d="M44.1644,32.9522c-1.9255,.012-3.8513,.0109-5.7769,.0018h-.0027c-.0494,.0001-.0989,0-.1484,0-.0175,0-.0349,0-.0524,0h-.0002c-5.4515,.0095-10.9033,.0097-16.3547-.0018l-.0134,.0018c-1.9934,.0101-3.9869,.0106-5.9803-.0018-.3623-.0023-.6407-.1945-.6419-.595-.0012-.4005,.276-.5629,.6387-.6018,.119-.0128,.2404-.0041,.3607-.0042,.8765-.0002,1.7529,0,2.6293,.0004,.8686,.0004,1.7372-.0029,2.6056,.0045l.0144-.0008c.3369-.0128,.6806-.0041,1.0212-.0042,2.4817-.0002,4.9634,0,7.4451,.0004,2.7761,.0005,5.5525-.0078,8.328,.0051,.9802-.0129,1.9607-.0046,2.9411-.0051,.8764-.0005,1.7528-.0006,2.6293-.0004,.1203,0,.2416-.0087,.3607,.0042,.3627,.0389,.6399,.2013,.6387,.6018-.0012,.4005-.2796,.5927-.6419,.595Z"/>
</svg>