<?xml version="1.0" encoding="UTF-8"?>
<svg id="Layer_1" data-name="Layer 1" xmlns="http://www.w3.org/2000/svg" width="60" height="60" viewBox="0 0 60 60">
  <defs>
    <style>
      .cls-1 {
        fill: #0085ba;
      }

      .cls-2 {
        fill: #fff;
      }
    </style>
  </defs>
  <rect class="cls-2" width="60" height="60"/>
  <g id="Background">
    <path class="cls-1" d="M25.0064,10.7411c1.2407,0,2.25,1.0094,2.25,2.25v9c0,1.2406-1.0093,2.25-2.25,2.25H13.0064c-1.2407,0-2.25-1.0094-2.25-2.25V12.9911c0-1.2406,1.0093-2.25,2.25-2.25h12m0-.75H13.0064c-1.6569,0-3,1.3432-3,3v9c0,1.6569,1.3431,3,3,3h12c1.6569,0,3-1.3431,3-3V12.9911c0-1.6568-1.3431-3-3-3h0Z"/>
  </g>
  <path id="Icon" class="cls-1" d="M22.4122,18.6737l-1.89-1.9826c-.0405-.0425-.1144-.0425-.1549,0l-1.6534,1.7344c-.0412,.0432-.04,.112,.0028,.1536,.0428,.0417,.111,.0405,.1521-.0028l1.576-1.6531,1.9259,2.0201c.012,.0126,.0263,.0212,.0416,.0267v.8037h-2.9659l-2.4066-2.5033c-.0406-.0421-.1137-.0421-.1543,0l-1.2848,1.3364v-3.3984h6.8116v3.4652Zm-6.8116,1.1v-.8567l.0055-.0038,1.3571-1.4112,2.1847,2.2716h-3.5473Zm6.9203-4.7826h-7.0301c-.0594,0-.1076,.0482-.1076,.1076v4.7837c0,.0598,.0489,.1087,.1087,.1087h7.0301c.0594,0,.1076-.0482,.1076-.1076v-4.7837c0-.0598-.0489-.1087-.1087-.1087Zm-4.0609,2.3177c.356,0,.6456-.2926,.6456-.6522s-.2896-.6522-.6456-.6522-.6456,.2926-.6456,.6522,.2896,.6522,.6456,.6522Zm0-1.087c.2374,0,.4304,.195,.4304,.4348s-.193,.4348-.4304,.4348-.4304-.195-.4304-.4348,.193-.4348,.4304-.4348Z"/>
  <rect class="cls-1" x="10.0064" y="33.9539" width="18" height="1" rx=".5" ry=".5"/>
  <rect class="cls-1" x="10.0064" y="28.9508" width="18" height="1" rx=".5" ry=".5"/>
  <rect class="cls-1" x="12.2564" y="38.9571" width="13.5" height="1" rx=".5" ry=".5"/>
  <g id="Background-2" data-name="Background">
    <path class="cls-1" d="M46.9588,10.7411c1.2407,0,2.25,1.0094,2.25,2.25v9c0,1.2406-1.0093,2.25-2.25,2.25h-12c-1.2407,0-2.25-1.0094-2.25-2.25V12.9911c0-1.2406,1.0093-2.25,2.25-2.25h12m0-.75h-12c-1.6569,0-3,1.3432-3,3v9c0,1.6569,1.3431,3,3,3h12c1.6569,0,3-1.3431,3-3V12.9911c0-1.6568-1.3431-3-3-3h0Z"/>
  </g>
  <g id="Icon-2" data-name="Icon">
    <path class="cls-1" d="M44.3646,18.6737l-1.89-1.9826c-.0405-.0425-.1144-.0425-.1549,0l-1.6534,1.7344c-.0412,.0432-.04,.112,.0028,.1536,.0428,.0417,.111,.0405,.1521-.0028l1.576-1.6531,1.9259,2.0201c.012,.0126,.0263,.0212,.0416,.0267v.8037h-2.9659l-2.4066-2.5033c-.0406-.0421-.1137-.0421-.1543,0l-1.2848,1.3364v-3.3984h6.8116v3.4652Zm-6.8116,1.1v-.8567l.0055-.0038,1.3571-1.4112,2.1847,2.2716h-3.5473Zm6.9203-4.7826h-7.0301c-.0594,0-.1076,.0482-.1076,.1076v4.7837c0,.0598,.0489,.1087,.1087,.1087h7.0301c.0594,0,.1076-.0482,.1076-.1076v-4.7837c0-.0598-.0489-.1087-.1087-.1087Zm-4.0609,2.3177c.356,0,.6456-.2926,.6456-.6522s-.2896-.6522-.6456-.6522-.6456,.2926-.6456,.6522,.2896,.6522,.6456,.6522Zm0-1.087c.2374,0,.4304,.195,.4304,.4348s-.193,.4348-.4304,.4348-.4304-.195-.4304-.4348,.193-.4348,.4304-.4348Z"/>
  </g>
  <rect class="cls-1" x="31.9588" y="33.9539" width="18" height="1" rx=".5" ry=".5"/>
  <rect class="cls-1" x="31.9588" y="28.9508" width="18" height="1" rx=".5" ry=".5"/>
  <rect class="cls-1" x="34.2088" y="38.9571" width="13.5" height="1" rx=".5" ry=".5"/>
</svg>