<?xml version="1.0" encoding="UTF-8"?>
<svg id="Layer_1" data-name="Layer 1" xmlns="http://www.w3.org/2000/svg" width="320" height="60" viewBox="0 0 320 60">
  <defs>
    <style>
      .cls-1 {
        fill: #0085ba;
      }

      .cls-2 {
        fill: #fff;
      }

      .cls-3 {
        fill: none;
        stroke: #0085ba;
        stroke-miterlimit: 10;
        stroke-width: .5px;
      }
    </style>
  </defs>
  <rect class="cls-2" width="320" height="60"/>
  <rect class="cls-3" x="283.588" y="28" width="4" height="4" rx="1" ry="1"/>
  <path class="cls-3" d="M295.2096,28.3374c.2597-.4498,.909-.4498,1.1687,0l.7651,1.3253,.7651,1.3253c.2597,.4498-.0649,1.0121-.5843,1.0121h-3.0606c-.5194,0-.8441-.5623-.5843-1.0121l.7651-1.3253,.7651-1.3253Z"/>
  <circle class="cls-3" cx="306" cy="30" r="2"/>
  <rect class="cls-3" x="90" y="29" width="20" height="2" rx="1" ry="1"/>
  <rect class="cls-3" x="64" y="29" width="20" height="2" rx="1" ry="1"/>
  <rect class="cls-3" x="38" y="29" width="20" height="2" rx="1" ry="1"/>
  <rect class="cls-3" x="12" y="29" width="20" height="2" rx="1" ry="1"/>
  <path class="cls-1" d="M160.2905,26.5796l.7514,1.5225c.0472,.0956,.1384,.1619,.244,.1772l1.6802,.2441c.2658,.0386,.3719,.3652,.1796,.5526l-1.2158,1.1851c-.0764,.0744-.1112,.1817-.0932,.2868l.287,1.6734c.0454,.2647-.2324,.4665-.4701,.3416l-1.5028-.7901c-.0944-.0496-.2072-.0496-.3015,0l-1.5028,.7901c-.2377,.125-.5155-.0769-.4701-.3416l.287-1.6734c.018-.1051-.0168-.2123-.0932-.2868l-1.2158-1.1851c-.1923-.1874-.0862-.514,.1796-.5526l1.6802-.2441c.1055-.0153,.1968-.0816,.244-.1772l.7514-1.5225c.1188-.2408,.4622-.2408,.5811,0Z"/>
  <circle class="cls-3" cx="160" cy="30" r="6"/>
</svg>