<?xml version="1.0" encoding="UTF-8"?>
<svg id="Layer_1" data-name="Layer 1" xmlns="http://www.w3.org/2000/svg" width="60" height="60" viewBox="0 0 60 60">
  <defs>
    <style>
      .cls-1 {
        fill: #0085ba;
      }

      .cls-2 {
        fill: #fff;
      }
    </style>
  </defs>
  <rect class="cls-2" width="60" height="60"/>
  <path class="cls-1" d="M30.0346,12.6634c4.8384,0,9.6768-.0035,14.5151,.0031,.9029,.0012,1.7873,.1485,2.5891,.5882,1.6122,.8841,2.5125,2.2451,2.6653,4.0859,.0142,.1712,.0152,.3439,.0152,.5159,.0007,8.0892-.0065,16.1784,.0064,24.2675,.0027,1.7208-.6415,3.1095-1.9735,4.1765-.9396,.7526-2.0593,1.0276-3.2327,1.0289-9.7284,.0109-19.4568,.0097-29.1852,.0041-3.0296-.0017-5.2373-2.1574-5.2455-5.1914-.0219-8.0891-.0163-16.1784-.0023-24.2675,.0044-2.5181,1.4744-4.418,3.8539-5.0287,.4933-.1266,1.0195-.1736,1.5307-.175,4.8211-.0127,9.6423-.0076,14.4635-.0076Zm-2.4939,1.2089V46.0919c.1041,.0146,.1708,.0322,.2375,.0322,5.6994,.0012,11.3991,.0296,17.0981-.0173,1.5963-.0131,2.8648-.7671,3.4445-2.3376,.2084-.5645,.2845-1.207,.2859-1.8142,.0181-7.9688,.0123-15.9377,.011-23.9066,0-.2579,.0079-.5191-.0273-.7733-.1409-1.0194-.5171-1.9105-1.3683-2.5627-.7579-.5806-1.6135-.8366-2.5491-.8375-5.5444-.0053-11.0889-.0027-16.6333-.0027-.1526,0-.3052,0-.499,0Zm-1.2794,32.2546V13.8723h-.5978c-3.3751,0-6.7502-.0007-10.1253,.0002-2.5836,.0007-4.1544,1.5666-4.1549,4.1488-.0017,7.9866-.0018,15.9732,0,23.9598,.0006,2.5836,1.5687,4.1449,4.1566,4.1456,3.3751,.0009,6.7502,.0002,10.1253,.0002h.5961Z"/>
  <path class="cls-1" d="M18.823,18.8292c-.9452,.0004-1.8903,.0007-2.8355,.0003-.3463-.0002-.6601-.0666-.7733-.454-.1177-.4029,.167-.7452,.6724-.7484,1.9762-.0124,3.9525-.0106,5.9287-.0002,.3785,.002,.7013,.1824,.7004,.5995-.0009,.4168-.3238,.5923-.7025,.5976-.9965,.0141-1.9934,.0048-2.9901,.0052Z"/>
  <path class="cls-1" d="M18.8175,23.7869c-.8764,.0004-1.7528,.0006-2.6293,.0003-.1203,0-.2417,.0088-.3606-.0045-.3631-.0406-.6382-.2056-.6338-.6062,.0044-.4004,.2846-.5885,.6466-.5907,1.9934-.0117,3.9869-.0117,5.9802-.0008,.3784,.0021,.7002,.1865,.6949,.6043-.0053,.4158-.329,.5878-.708,.5928-.9965,.013-1.9934,.0044-2.9901,.0048Z"/>
  <path class="cls-1" d="M18.8224,28.7444c-.8764,.0005-1.7529,.0006-2.6293,.0004-.1203,0-.2417,.0087-.3606-.0041-.3627-.039-.6399-.2013-.6387-.6018,.0012-.4004,.2796-.5927,.6419-.595,1.9934-.0124,3.9869-.0119,5.9803-.0018,.3785,.0019,.7011,.1829,.6998,.6-.0014,.4167-.3244,.5918-.7032,.5971-.9965,.014-1.9934,.0047-2.9901,.0052Z"/>
</svg>