<?xml version="1.0" encoding="UTF-8"?>
<svg id="Layer_1" data-name="Layer 1" xmlns="http://www.w3.org/2000/svg" width="60" height="60" viewBox="0 0 60 60">
  <defs>
    <style>
      .cls-1 {
        fill: #0085ba;
      }

      .cls-2 {
        fill: #fff;
      }
    </style>
  </defs>
  <rect class="cls-2" width="60" height="60"/>
  <g id="Background">
    <path class="cls-1" d="M26.6996,10.6398c1.2407,0,2.25,1.0094,2.25,2.25v9c0,1.2406-1.0093,2.25-2.25,2.25H13.0429c-1.2407,0-2.25-1.0094-2.25-2.25V12.8898c0-1.2406,1.0093-2.25,2.25-2.25h13.6567m0-.75H13.0429c-1.6569,0-3,1.3431-3,3v9c0,1.6568,1.3431,3,3,3h13.6567c1.6569,0,3-1.3432,3-3V12.8898c0-1.6569-1.3431-3-3-3h0Z"/>
  </g>
  <g id="Icon">
    <path class="cls-1" d="M22.8466,18.4229l-1.6512-1.7321c-.0354-.0372-.1-.0372-.1354,0l-1.4444,1.5152c-.036,.0377-.035,.0978,.0024,.1342,.0374,.0364,.097,.0354,.1329-.0025l1.3768-1.4442,1.6825,1.7649c.0105,.011,.023,.0185,.0363,.0233v.7021h-2.5911l-2.1025-2.1869c-.0355-.0368-.0993-.0368-.1348,0l-1.1224,1.1676v-2.969h5.9508v3.0273Zm-5.9508,.961v-.7484l.0048-.0033,1.1856-1.2328,1.9086,1.9845h-3.099Zm6.0458-4.1782h-6.1417c-.0519,0-.094,.0421-.094,.094v4.1792c0,.0522,.0427,.095,.095,.095h6.1417c.0519,0,.094-.0421,.094-.094v-4.1792c0-.0522-.0427-.095-.095-.095Zm-3.5478,2.0248c.311,0,.564-.2556,.564-.5698s-.253-.5698-.564-.5698-.564,.2556-.564,.5698,.253,.5698,.564,.5698Zm0-.9496c.2074,0,.376,.1704,.376,.3798s-.1686,.3798-.376,.3798-.376-.1704-.376-.3798,.1686-.3798,.376-.3798Z"/>
  </g>
  <rect class="cls-1" x="34.3101" y="16.7345" width="15.7253" height="1.3104" rx=".6552" ry=".6552"/>
  <rect class="cls-1" x="34.3101" y="12.3636" width="15.7253" height="1.3104" rx=".6552" ry=".6552"/>
  <rect class="cls-1" x="34.3101" y="21.1054" width="11.794" height="1.3104" rx=".6552" ry=".6552"/>
  <g id="Background-2" data-name="Background">
    <path class="cls-1" d="M26.6996,35.6399c1.2407,0,2.25,1.0094,2.25,2.25v9c0,1.2406-1.0093,2.25-2.25,2.25H13.0429c-1.2407,0-2.25-1.0094-2.25-2.25v-9c0-1.2406,1.0093-2.25,2.25-2.25h13.6567m0-.75H13.0429c-1.6569,0-3,1.3431-3,3v9c0,1.6569,1.3431,3,3,3h13.6567c1.6569,0,3-1.3431,3-3v-9c0-1.6569-1.3431-3-3-3h0Z"/>
  </g>
  <g id="Icon-2" data-name="Icon">
    <path class="cls-1" d="M22.8466,43.423l-1.6512-1.7321c-.0354-.0372-.1-.0372-.1354,0l-1.4444,1.5152c-.036,.0377-.035,.0978,.0024,.1342,.0374,.0364,.097,.0354,.1329-.0025l1.3768-1.4442,1.6825,1.7649c.0105,.011,.023,.0185,.0363,.0233v.7021h-2.5911l-2.1025-2.1869c-.0355-.0368-.0993-.0368-.1348,0l-1.1224,1.1676v-2.969h5.9508v3.0273Zm-5.9508,.961v-.7484l.0048-.0033,1.1856-1.2328,1.9086,1.9845h-3.099Zm6.0458-4.1782h-6.1417c-.0519,0-.094,.0421-.094,.094v4.1792c0,.0522,.0427,.095,.095,.095h6.1417c.0519,0,.094-.0421,.094-.094v-4.1792c0-.0522-.0427-.095-.095-.095Zm-3.5478,2.0248c.311,0,.564-.2556,.564-.5698s-.253-.5698-.564-.5698-.564,.2556-.564,.5698,.253,.5698,.564,.5698Zm0-.9496c.2074,0,.376,.1704,.376,.3798s-.1686,.3798-.376,.3798-.376-.1704-.376-.3798,.1686-.3798,.376-.3798Z"/>
  </g>
  <rect class="cls-1" x="34.3101" y="41.7346" width="15.7253" height="1.3104" rx=".6552" ry=".6552"/>
  <rect class="cls-1" x="34.3101" y="37.3637" width="15.7253" height="1.3104" rx=".6552" ry=".6552"/>
  <rect class="cls-1" x="34.3101" y="46.1055" width="11.794" height="1.3104" rx=".6552" ry=".6552"/>
</svg>