<?xml version="1.0" encoding="UTF-8"?>
<svg id="Layer_1" data-name="Layer 1" xmlns="http://www.w3.org/2000/svg" width="60" height="60" viewBox="0 0 60 60">
  <defs>
    <style>
      .cls-1 {
        fill: #0085ba;
      }

      .cls-2 {
        fill: #fff;
      }

      .cls-3 {
        fill: none;
        stroke: #0085ba;
        stroke-miterlimit: 10;
        stroke-width: .6159px;
      }
    </style>
  </defs>
  <rect class="cls-2" width="60" height="60"/>
  <rect class="cls-1" x="10.0064" y="24.3323" width="18" height="1" rx=".5" ry=".5"/>
  <rect class="cls-1" x="10.0064" y="49.0399" width="13.5" height="1" rx=".5" ry=".5"/>
  <rect class="cls-1" x="31.9588" y="49.0399" width="13.5" height="1" rx=".5" ry=".5"/>
  <rect class="cls-1" x="31.9588" y="30.3323" width="18" height="1" rx=".5" ry=".5"/>
  <rect class="cls-3" x="31.9588" y="34.6987" width="17.8916" height="10.9749" rx="1.5397" ry="1.5397"/>
  <circle class="cls-3" cx="36.603" cy="37.1242" r="1.2318"/>
  <path class="cls-3" d="M49.9588,40.8184l-3.5459-3.4145c-.3218-.3099-.8324-.3057-1.149,.0096l-8.1769,8.1411"/>
  <path class="cls-3" d="M31.9689,43.3774l3.3949-3.5254c.3176-.3298,.8437-.3362,1.1691-.0141l3.075,3.043"/>
  <rect class="cls-3" x="10.0064" y="9.9911" width="17.8916" height="10.9749" rx="1.5397" ry="1.5397"/>
  <circle class="cls-3" cx="14.6505" cy="12.4167" r="1.2318"/>
  <path class="cls-3" d="M28.0064,16.1108l-3.5459-3.4145c-.3218-.3099-.8324-.3057-1.149,.0096l-8.1769,8.1411"/>
  <path class="cls-3" d="M10.0165,18.6699l3.3949-3.5254c.3176-.3298,.8437-.3362,1.1691-.0141l3.075,3.043"/>
  <rect class="cls-3" x="31.9588" y="9.9911" width="17.8916" height="16.9749" rx="1.5397" ry="1.5397"/>
  <circle class="cls-3" cx="36.603" cy="17.4167" r="1.2318"/>
  <path class="cls-3" d="M49.9588,22.1108l-3.5459-3.4145c-.3218-.3099-.8324-.3057-1.149,.0096l-8.1769,8.1411"/>
  <path class="cls-3" d="M31.9689,24.6699l3.3949-3.5254c.3176-.3298,.8437-.3362,1.1691-.0141l3.075,3.043"/>
  <rect class="cls-3" x="10.0064" y="28.6987" width="17.8916" height="16.9749" rx="1.5397" ry="1.5397"/>
  <circle class="cls-3" cx="14.6505" cy="36.1242" r="1.2318"/>
  <path class="cls-3" d="M28.0064,40.8184l-3.5459-3.4145c-.3218-.3099-.8324-.3057-1.149,.0096l-8.1769,8.1411"/>
  <path class="cls-3" d="M10.0165,43.3774l3.3949-3.5254c.3176-.3298,.8437-.3362,1.1691-.0141l3.075,3.043"/>
</svg>