<?xml version="1.0" encoding="UTF-8"?>
<svg id="Layer_1" data-name="Layer 1" xmlns="http://www.w3.org/2000/svg" width="60" height="60" viewBox="0 0 60 60">
  <defs>
    <style>
      .cls-1, .cls-2, .cls-3 {
        fill: #0085ba;
      }

      .cls-4 {
        fill: #fff;
      }

      .cls-5 {
        fill: #99cee3;
      }

      .cls-2 {
        opacity: .15;
      }

      .cls-3 {
        fill-rule: evenodd;
      }

      .cls-6 {
        fill: none;
        stroke: #0085ba;
        stroke-miterlimit: 10;
        stroke-width: .25px;
      }
    </style>
  </defs>
  <rect class="cls-4" width="60" height="60"/>
  <path class="cls-1" d="m46,11c1.65,0,3,1.35,3,3v32c0,1.65-1.35,3-3,3H14c-1.65,0-3-1.35-3-3V14c0-1.65,1.35-3,3-3h32m0-1H14c-2.21,0-4,1.79-4,4v32c0,2.21,1.79,4,4,4h32c2.21,0,4-1.79,4-4V14c0-2.21-1.79-4-4-4h0Z"/>
  <rect class="cls-2" x="12.61" y="20.75" width="7.62" height="5.18" rx=".31" ry=".31"/>
  <rect class="cls-2" x="12.61" y="27.23" width="6.74" height=".52" rx=".26" ry=".26"/>
  <rect class="cls-2" x="22.5" y="20.75" width="7.62" height="5.18" rx=".31" ry=".31"/>
  <rect class="cls-2" x="22.5" y="27.23" width="6.74" height=".52" rx=".26" ry=".26"/>
  <rect class="cls-2" x="32.39" y="20.75" width="7.62" height="5.18" rx=".31" ry=".31"/>
  <rect class="cls-2" x="32.39" y="27.23" width="6.74" height=".52" rx=".26" ry=".26"/>
  <rect class="cls-2" x="12.61" y="31.17" width="7.62" height="5.18" rx=".31" ry=".31"/>
  <rect class="cls-2" x="12.61" y="37.65" width="6.74" height=".52" rx=".26" ry=".26"/>
  <rect class="cls-2" x="22.5" y="31.17" width="7.62" height="5.18" rx=".31" ry=".31"/>
  <rect class="cls-2" x="22.5" y="37.65" width="6.74" height=".52" rx=".26" ry=".26"/>
  <rect class="cls-2" x="32.39" y="31.17" width="7.62" height="5.18" rx=".31" ry=".31"/>
  <rect class="cls-2" x="32.39" y="37.65" width="6.74" height=".52" rx=".26" ry=".26"/>
  <path class="cls-1" d="m13.99,14.81c0-.22.06-.42.18-.58-.15-.18-.38-.28-.62-.28-.16,0-.33.05-.44.14,0-.14,0-.29,0-.43v-.45h-.5v2.44h.44v-.15c.12.12.3.18.49.18.25,0,.48-.11.63-.29-.12-.16-.18-.36-.18-.58h0Zm-.51.42c-.23,0-.4-.16-.4-.41s.17-.41.4-.41.4.16.4.41-.17.41-.4.41Z"/>
  <path class="cls-1" d="m15.41,15.05c-.12.14-.27.21-.43.21-.22,0-.38-.12-.43-.32h.85s0-.09,0-.13c0-.23.07-.44.19-.6-.15-.19-.39-.28-.63-.28-.49,0-.87.36-.87.89s.36.87.89.87c.26,0,.47-.08.64-.23-.1-.11-.16-.25-.2-.4h0Zm-.47-.72c.19,0,.31.09.35.27h-.74c.05-.16.2-.27.39-.27Z"/>
  <path class="cls-1" d="m16.95,15.14l-.13-.11c-.12.15-.27.23-.45.23-.22,0-.38-.12-.43-.32h1.02v-.43s-.2,0-.2,0v-.48c-.13-.07-.27-.1-.42-.1-.49,0-.87.36-.87.89s.36.87.89.87c.23,0,.43-.07.59-.19v-.35s0,0,0,0Zm-.62-.81c.19,0,.31.09.35.27h-.74c.05-.16.2-.27.39-.27Z"/>
  <path class="cls-1" d="m17.33,14.78c0-.35.16-.64.41-.8h0s-.2,0-.2,0v-.59l-.5.16v.43h-.2v.45h.2v1.23s.5,0,.5,0v-.25c-.13-.16-.21-.38-.21-.62h0Z"/>
  <path class="cls-1" d="m19.73,13.93c.46,0,.73.28.73.73v.99h-.5v-.97c0-.18-.09-.28-.23-.28s-.23.1-.23.28v.97h-.5v-.99c0-.45.28-.73.73-.73h0Z"/>
  <path class="cls-1" d="m18.91,14.66c0-.27.09-.49.26-.63v-.09h-.44v.15c-.12-.12-.3-.18-.49-.18-.45,0-.83.35-.83.87s.38.87.83.87c.19,0,.37-.06.48-.18v.18h.19v-.99h0Zm-.6.53c-.23,0-.4-.16-.4-.41s.17-.41.4-.41.4.16.4.41-.17.41-.4.41Z"/>
  <rect class="cls-1" x="38.83" y="14.53" width="3.09" height=".62" rx=".31" ry=".31"/>
  <rect class="cls-1" x="35.07" y="14.53" width="3.09" height=".62" rx=".31" ry=".31"/>
  <rect class="cls-1" x="31.32" y="14.53" width="3.09" height=".62" rx=".31" ry=".31"/>
  <path class="cls-3" d="m46.43,13.64c-.09,0-.18.04-.24.1-.06.06-.1.15-.1.24v.07h.68v-.07c0-.09-.04-.18-.1-.24-.06-.06-.15-.1-.24-.1Zm.48.41v-.07c0-.13-.05-.25-.14-.34-.09-.09-.21-.14-.34-.14s-.25.05-.34.14c-.09.09-.14.21-.14.34v.07h-.48v1.36c0,.07.03.14.08.19.05.05.12.08.19.08h1.36c.07,0,.14-.03.19-.08.05-.05.08-.12.08-.19v-1.36h-.48Zm-1.29.14v1.23s.01.07.04.1c.03.03.06.04.1.04h1.36s.07-.01.1-.04.04-.06.04-.1v-1.23h-1.63Z"/>
  <path class="cls-5" d="m48.99,14.02v31.97c0,1.66-1.34,3-3,3h-11.26V11.02h11.26c1.66,0,3,1.34,3,3Z"/>
  <rect class="cls-1" x="36.25" y="15.24" width="4" height="5.33"/>
  <rect class="cls-1" x="41.59" y="15.66" width="6.22" height=".44" rx=".22" ry=".22"/>
  <rect class="cls-1" x="41.59" y="17.23" width="4.45" height=".44" rx=".22" ry=".22"/>
  <rect class="cls-1" x="41.59" y="18.76" width="1.78" height=".44" rx=".22" ry=".22"/>
  <rect class="cls-1" x="36.25" y="23.8" width="4" height="5.33"/>
  <rect class="cls-1" x="41.59" y="24.23" width="6.22" height=".44" rx=".22" ry=".22"/>
  <rect class="cls-1" x="41.59" y="25.8" width="4.45" height=".44" rx=".22" ry=".22"/>
  <rect class="cls-1" x="41.59" y="27.33" width="1.78" height=".44" rx=".22" ry=".22"/>
  <rect class="cls-1" x="36.25" y="32.37" width="4" height="5.33"/>
  <rect class="cls-1" x="41.59" y="32.8" width="6.22" height=".44" rx=".22" ry=".22"/>
  <rect class="cls-1" x="41.59" y="34.37" width="4.45" height=".44" rx=".22" ry=".22"/>
  <rect class="cls-1" x="41.59" y="35.9" width="1.78" height=".44" rx=".22" ry=".22"/>
  <rect class="cls-1" x="36.25" y="40.94" width="4" height="5.33"/>
  <rect class="cls-1" x="41.59" y="41.36" width="6.22" height=".44" rx=".22" ry=".22"/>
  <rect class="cls-1" x="41.59" y="42.94" width="4.45" height=".44" rx=".22" ry=".22"/>
  <rect class="cls-1" x="41.59" y="44.47" width="1.78" height=".44" rx=".22" ry=".22"/>
  <line class="cls-6" x1="46.33" y1="13.75" x2="47.33" y2="12.75"/>
  <line class="cls-6" x1="47.33" y1="13.75" x2="46.33" y2="12.75"/>
</svg>