<?xml version="1.0" encoding="UTF-8"?>
<svg id="Layer_1" data-name="Layer 1" xmlns="http://www.w3.org/2000/svg" width="80px" viewBox="0 0 90 47">
  <defs>
    <style>
      .cls-1 {
        fill: #0085ba;
      }

      .cls-2 {
        fill: #ebf9ff;
      }

      .cls-3 {
        fill: #fff;
      }

      .cls-4 {
        fill: none;
        stroke: rgba(0, 133, 186, .3);
      }
    </style>
  </defs>
  <path class="cls-3" d="m5,2h80c1.7,0,3,1.3,3,3v37c0,1.7-1.3,3-3,3H5c-1.7,0-3-1.3-3-3V5c0-1.7,1.3-3,3-3Z"/>
  <path class="cls-2" d="m9,7h72c1.7,0,3,1.3,3,3v27c0,1.7-1.3,3-3,3H9c-1.7,0-3-1.3-3-3V10c0-1.7,1.3-3,3-3Z"/>
  <path class="cls-4" d="m8.5,7.5h73c1.1,0,2,.9,2,2v28c0,1.1-.9,2-2,2H8.5c-1.1,0-2-.9-2-2V9.5c0-1.1.9-2,2-2Z"/>
  <path class="cls-4" d="m83,23.5h-17"/>
  <line class="cls-4" x1="65.5" y1="8" x2="65.5" y2="39"/>
  <path class="cls-1" d="m33.9,24.2c-.2.3-.5.5-.8.7s-.7.2-1,.2c-.5,0-.9-.1-1.3-.4-.4-.2-.6-.6-.8-1-.2-.4-.3-.9-.3-1.5s.1-1.1.3-1.5c.2-.5.5-.8.9-1s.9-.4,1.4-.4c.8,0,1.5.3,2,.9s.7,1.5.7,2.6v.3c0,1.7-.3,2.9-1,3.6-.7.8-1.6,1.2-3,1.2h-.2v-.9h.2c.9,0,1.6-.2,2.1-.7.5-.4.7-1.1.8-2.1Zm-1.7,0c.4,0,.7-.1,1-.3.3-.2.5-.5.7-.8v-.4c0-.7-.2-1.3-.5-1.7-.3-.4-.7-.7-1.2-.7s-.9.2-1.1.6c-.3.4-.4.8-.4,1.4s.1,1.1.4,1.4c.2.4.6.5,1.1.5Zm8.4,0c-.2.3-.5.5-.8.7s-.7.2-1,.2c-.5,0-.9-.1-1.3-.4-.4-.2-.6-.6-.8-1s-.3-.9-.3-1.5.1-1.1.3-1.5c.2-.5.5-.8.9-1s.9-.4,1.4-.4c.8,0,1.5.3,2,.9s.7,1.5.7,2.6v.3c0,1.7-.3,2.9-1,3.6-.7.8-1.6,1.2-3,1.2h-.2v-.9h.2c.9,0,1.6-.2,2.1-.7.5-.4.8-1.1.8-2.1Zm-1.7,0c.4,0,.7-.1,1-.3.3-.2.5-.5.7-.8v-.4c0-.7-.2-1.3-.5-1.7-.3-.4-.7-.7-1.2-.7s-.9.2-1.1.6c-.3.4-.4.8-.4,1.4s.1,1.1.4,1.4c.3.4.7.5,1.1.5Z"/>
  <path class="cls-1" d="m74.9,15.4h2.4v1h-2.4v2.7h-1.1v-2.7h-2.4v-1h2.4v-2.5h1.1v2.5Z"/>
  <path class="cls-1" d="m76.1,31.8h-3.8v-1.2h3.8v1.2Z"/>
</svg>