<?xml version="1.0" encoding="UTF-8"?>
<svg id="Layer_1" data-name="Layer 1" xmlns="http://www.w3.org/2000/svg" width="60" height="60" viewBox="0 0 60 60">
  <defs>
    <style>
      .cls-1 {
        fill: #0085ba;
      }

      .cls-2 {
        fill: #fff;
      }
    </style>
  </defs>
  <rect class="cls-2" width="60" height="60"/>
  <path class="cls-1" d="M44.4288,12.6709c.5113,.0013,1.0374,.0484,1.5307,.175,2.3795,.6108,3.8495,2.5107,3.8539,5.0287,.014,8.0892,.0197,16.1784-.0023,24.2675-.0082,3.034-2.2159,5.1896-5.2455,5.1914-9.7284,.0056-19.4568,.0068-29.1852-.0041-1.1734-.0013-2.2931-.2763-3.2327-1.0289-1.332-1.067-1.9763-2.4557-1.9735-4.1765,.0129-8.0892,.0057-16.1784,.0064-24.2675,0-.172,.001-.3447,.0152-.5159,.1528-1.8407,1.0531-3.2017,2.6653-4.0859,.8018-.4397,1.6862-.587,2.5891-.5882,4.8384-.0067,9.6768-.0031,14.5151-.0031,4.8212,0,9.6423-.0052,14.4635,.0076Zm-12.4685,1.2014c-5.5444,0-11.0889-.0027-16.6333,.0027-.9356,.0009-1.7912,.2569-2.5491,.8375-.8513,.6522-1.2274,1.5433-1.3683,2.5627-.0351,.2542-.0272,.5153-.0273,.7733-.0013,7.9689-.0071,15.9378,.011,23.9066,.0014,.6072,.0775,1.2497,.2859,1.8142,.5797,1.5705,1.8482,2.3244,3.4445,2.3376,5.699,.047,11.3987,.0185,17.0981,.0173,.0667,0,.1333-.0176,.2375-.0322V13.8723c-.1938,0-.3464,0-.499,0Zm2.3745,32.2546c3.3751,0,6.7502,.0007,10.1253-.0002,2.5879-.0007,4.156-1.5619,4.1566-4.1456,.0018-7.9866,.0018-15.9732,0-23.9598-.0006-2.5822-1.5713-4.1481-4.1549-4.1488-3.3751-.001-6.7502-.0002-10.1253-.0002h-.5978V46.1269h.5961Z"/>
  <path class="cls-1" d="M41.177,18.8292c.9452,.0004,1.8903,.0007,2.8355,.0003,.3463-.0002,.6601-.0666,.7733-.454,.1177-.4029-.167-.7452-.6724-.7484-1.9762-.0124-3.9525-.0106-5.9287-.0002-.3785,.002-.7013,.1824-.7004,.5995,.0009,.4168,.3238,.5923,.7025,.5976,.9965,.0141,1.9934,.0048,2.9901,.0052Z"/>
  <path class="cls-1" d="M41.1825,23.7869c.8764,.0004,1.7528,.0006,2.6293,.0003,.1203,0,.2417,.0088,.3606-.0045,.3631-.0406,.6382-.2056,.6338-.6062-.0044-.4004-.2846-.5885-.6466-.5907-1.9934-.0117-3.9869-.0117-5.9802-.0008-.3784,.0021-.7002,.1865-.6949,.6043,.0053,.4158,.329,.5878,.708,.5928,.9965,.013,1.9934,.0044,2.9901,.0048Z"/>
  <path class="cls-1" d="M41.1776,28.7444c.8764,.0005,1.7529,.0006,2.6293,.0004,.1203,0,.2417,.0087,.3606-.0041,.3627-.039,.6399-.2013,.6387-.6018-.0012-.4004-.2796-.5927-.6419-.595-1.9934-.0124-3.9869-.0119-5.9803-.0018-.3785,.0019-.7011,.1829-.6998,.6,.0014,.4167,.3244,.5918,.7032,.5971,.9965,.014,1.9934,.0047,2.9901,.0052Z"/>
</svg>